<svg width="2845" height="1819" viewBox="0 0 2845 1819" fill="none" xmlns="http://www.w3.org/2000/svg">
<g clip-path="url(#clip0_305_394)">
<path d="M2505.22 1663.54L2507.99 1600.51C2536.88 1584.89 2569.1 1576.64 2601.85 1576.47C2556.77 1613.76 2562.4 1685.63 2531.84 1735.77C2512.3 1767.3 2479.64 1788.12 2443.09 1792.35L2405.37 1815.72C2394.89 1756.64 2410.52 1695.88 2448.12 1649.45C2458.67 1636.68 2470.76 1625.31 2484.12 1615.61C2493.15 1639.71 2505.22 1663.54 2505.22 1663.54Z" fill="#2B886D"/>
<path d="M598.36 1594.47L507.331 1566.58C495.393 1517.51 495.475 1466.24 507.569 1417.21C545.055 1498.64 652.164 1517.29 713.894 1581.87C752.585 1622.97 770.7 1679.64 763.123 1735.88L783.047 1801.08C692.8 1794.49 609.93 1748.25 556.27 1674.55C541.596 1653.97 529.542 1631.6 520.392 1607.97C559 1603.54 598.36 1594.47 598.36 1594.47Z" fill="#2B886D"/>
<path d="M2189.81 1805.41C2189.79 1807.32 2189.04 1809.15 2187.72 1810.51C2186.39 1811.84 2184.59 1812.59 2182.72 1812.59H2154.22C2150.32 1812.6 2147.14 1809.41 2147.13 1805.46V933.459C2147.13 914.237 2140.75 898.637 2132.91 898.601H358.838C350.969 898.637 344.624 914.237 344.588 933.459V1800.07C344.576 1803.76 341.804 1806.85 338.172 1807.21C332.43 1807.78 326.688 1808.28 320.981 1808.75C320.839 1808.75 320.697 1808.78 320.555 1808.78C317.436 1809.07 314.317 1809.29 311.197 1809.54H311.162C309.531 1806.56 307.972 1803.51 306.377 1800.46C305.865 1799.43 305.598 1798.29 305.597 1797.13V888.237C305.597 882.929 305.809 877.585 306.164 872.314C306.67 865.075 307.557 857.868 308.822 850.725C314.813 817.409 328.354 794.851 343.737 794.78H2147.98C2150.22 794.795 2152.44 795.271 2154.5 796.178C2157.52 797.532 2160.26 799.468 2162.55 801.88C2165.66 805.15 2168.32 808.829 2170.45 812.818C2178.04 826.338 2183.46 846.493 2185.38 869.947C2185.38 870.162 2185.41 870.377 2185.41 870.592C2185.91 876.402 2186.16 882.319 2186.12 888.236L2186.62 965.089L2186.94 1010.92L2187.89 1154.73L2188.25 1205.8L2189.81 1805.41Z" fill="#E6E6E6"/>
<path d="M1531.39 528.919H1350.59C1345.26 528.928 1340.95 533.301 1340.96 538.69V827.645H1541.04V538.689C1541.05 533.296 1536.73 528.922 1531.4 528.919H1531.39ZM1441.59 693.101C1429.83 693.045 1420.3 683.407 1420.25 671.501V638.173C1420.25 626.244 1429.8 616.573 1441.59 616.573C1453.39 616.573 1462.94 626.244 1462.94 638.173V671.501C1462.89 683.407 1453.36 693.045 1441.59 693.101Z" fill="#CCCCCC"/>
<path d="M1340.33 818.403V846.281C1340.34 849.289 1342.75 851.725 1345.72 851.731H1536.28C1539.24 851.716 1541.65 849.285 1541.66 846.281V818.403H1340.33Z" fill="#3F3D56"/>
<path d="M1830.77 77.9714H1057.93C1044.1 77.9937 1032.9 89.3265 1032.88 103.313V630.943C1032.89 644.933 1044.1 656.271 1057.93 656.285H1830.77C1844.6 656.271 1855.81 644.933 1855.82 630.943V103.313C1855.8 89.3265 1844.6 77.9937 1830.77 77.9714Z" fill="#E6E6E6"/>
<path d="M1824.32 96.2754H1064.39C1056.98 96.2916 1050.99 102.367 1050.99 109.856V624.409C1051 631.888 1056.99 637.949 1064.39 637.961H1824.32C1831.71 637.949 1837.7 631.888 1837.72 624.409V109.856C1837.72 102.367 1831.72 96.2916 1824.32 96.2754Z" fill="white"/>
<path d="M1676.3 861.432H1224.18C1219.58 861.432 1215.86 857.665 1215.86 853.018C1215.86 852.435 1215.92 851.855 1216.04 851.285L1223.05 817.575C1223.88 813.69 1227.26 810.909 1231.19 810.894H1669.28C1673.21 810.909 1676.6 813.69 1677.42 817.575L1684.44 851.285C1685.38 855.832 1682.51 860.295 1678.01 861.252C1677.45 861.372 1676.87 861.432 1676.3 861.432Z" fill="#CCCCCC"/>
<path d="M1246.6 816.964H1236.13C1235.18 816.964 1234.4 817.748 1234.4 818.715V823.666C1234.4 824.633 1235.18 825.417 1236.13 825.417H1246.6C1247.55 825.417 1248.33 824.633 1248.33 823.666V818.715C1248.33 817.748 1247.55 816.964 1246.6 816.964Z" fill="#E6E6E6"/>
<path d="M1274.45 816.964H1263.98C1263.03 816.964 1262.25 817.748 1262.25 818.715V823.666C1262.25 824.633 1263.03 825.417 1263.98 825.417H1274.45C1275.4 825.417 1276.18 824.633 1276.18 823.666V818.715C1276.18 817.748 1275.4 816.964 1274.45 816.964Z" fill="#E6E6E6"/>
<path d="M1302.3 816.964H1291.83C1290.88 816.964 1290.1 817.748 1290.1 818.715V823.666C1290.1 824.633 1290.88 825.417 1291.83 825.417H1302.3C1303.25 825.417 1304.03 824.633 1304.03 823.666V818.715C1304.03 817.748 1303.25 816.964 1302.3 816.964Z" fill="#E6E6E6"/>
<path d="M1330.15 816.964H1319.68C1318.73 816.964 1317.95 817.748 1317.95 818.715V823.666C1317.95 824.633 1318.73 825.417 1319.68 825.417H1330.15C1331.1 825.417 1331.88 824.633 1331.88 823.666V818.715C1331.88 817.748 1331.1 816.964 1330.15 816.964Z" fill="#E6E6E6"/>
<path d="M1358 816.964H1347.53C1346.58 816.964 1345.8 817.748 1345.8 818.715V823.666C1345.8 824.633 1346.58 825.417 1347.53 825.417H1358C1358.95 825.417 1359.73 824.633 1359.73 823.666V818.715C1359.73 817.748 1358.95 816.964 1358 816.964Z" fill="#E6E6E6"/>
<path d="M1385.85 816.964H1375.38C1374.43 816.964 1373.65 817.748 1373.65 818.715V823.666C1373.65 824.633 1374.43 825.417 1375.38 825.417H1385.85C1386.8 825.417 1387.58 824.633 1387.58 823.666V818.715C1387.58 817.748 1386.8 816.964 1385.85 816.964Z" fill="#E6E6E6"/>
<path d="M1413.7 816.964H1403.23C1402.28 816.964 1401.5 817.748 1401.5 818.715V823.666C1401.5 824.633 1402.28 825.417 1403.23 825.417H1413.7C1414.65 825.417 1415.43 824.633 1415.43 823.666V818.715C1415.43 817.748 1414.65 816.964 1413.7 816.964Z" fill="#E6E6E6"/>
<path d="M1441.54 816.964H1431.08C1430.13 816.964 1429.35 817.748 1429.35 818.715V823.666C1429.35 824.633 1430.13 825.417 1431.08 825.417H1441.54C1442.5 825.417 1443.28 824.633 1443.28 823.666V818.715C1443.28 817.748 1442.5 816.964 1441.54 816.964Z" fill="#E6E6E6"/>
<path d="M1469.39 816.964H1458.93C1457.97 816.964 1457.2 817.748 1457.2 818.715V823.666C1457.2 824.633 1457.97 825.417 1458.93 825.417H1469.39C1470.35 825.417 1471.13 824.633 1471.13 823.666V818.715C1471.13 817.748 1470.35 816.964 1469.39 816.964Z" fill="#E6E6E6"/>
<path d="M1497.24 816.964H1486.78C1485.82 816.964 1485.05 817.748 1485.05 818.715V823.666C1485.05 824.633 1485.82 825.417 1486.78 825.417H1497.24C1498.2 825.417 1498.97 824.633 1498.97 823.666V818.715C1498.97 817.748 1498.2 816.964 1497.24 816.964Z" fill="#E6E6E6"/>
<path d="M1525.09 816.964H1514.63C1513.67 816.964 1512.9 817.748 1512.9 818.715V823.666C1512.9 824.633 1513.67 825.417 1514.63 825.417H1525.09C1526.05 825.417 1526.82 824.633 1526.82 823.666V818.715C1526.82 817.748 1526.05 816.964 1525.09 816.964Z" fill="#E6E6E6"/>
<path d="M1552.94 816.964H1542.48C1541.52 816.964 1540.75 817.748 1540.75 818.715V823.666C1540.75 824.633 1541.52 825.417 1542.48 825.417H1552.94C1553.9 825.417 1554.67 824.633 1554.67 823.666V818.715C1554.67 817.748 1553.9 816.964 1552.94 816.964Z" fill="#E6E6E6"/>
<path d="M1580.79 816.964H1570.33C1569.37 816.964 1568.6 817.748 1568.6 818.715V823.666C1568.6 824.633 1569.37 825.417 1570.33 825.417H1580.79C1581.75 825.417 1582.52 824.633 1582.52 823.666V818.715C1582.52 817.748 1581.75 816.964 1580.79 816.964Z" fill="#E6E6E6"/>
<path d="M1608.64 816.964H1598.18C1597.22 816.964 1596.45 817.748 1596.45 818.715V823.666C1596.45 824.633 1597.22 825.417 1598.18 825.417H1608.64C1609.6 825.417 1610.37 824.633 1610.37 823.666V818.715C1610.37 817.748 1609.6 816.964 1608.64 816.964Z" fill="#E6E6E6"/>
<path d="M1636.49 816.964H1626.03C1625.07 816.964 1624.3 817.748 1624.3 818.715V823.666C1624.3 824.633 1625.07 825.417 1626.03 825.417H1636.49C1637.45 825.417 1638.22 824.633 1638.22 823.666V818.715C1638.22 817.748 1637.45 816.964 1636.49 816.964Z" fill="#E6E6E6"/>
<path d="M1664.34 816.964H1653.88C1652.92 816.964 1652.15 817.748 1652.15 818.715V823.666C1652.15 824.633 1652.92 825.417 1653.88 825.417H1664.34C1665.3 825.417 1666.07 824.633 1666.07 823.666V818.715C1666.07 817.748 1665.3 816.964 1664.34 816.964Z" fill="#E6E6E6"/>
<path d="M1246.27 831.052H1235.8C1234.85 831.052 1234.07 831.836 1234.07 832.803V837.754C1234.07 838.721 1234.85 839.505 1235.8 839.505H1246.27C1247.22 839.505 1248 838.721 1248 837.754V832.803C1248 831.836 1247.22 831.052 1246.27 831.052Z" fill="#E6E6E6"/>
<path d="M1274.12 831.052H1263.65C1262.7 831.052 1261.92 831.836 1261.92 832.803V837.754C1261.92 838.721 1262.7 839.505 1263.65 839.505H1274.12C1275.07 839.505 1275.85 838.721 1275.85 837.754V832.803C1275.85 831.836 1275.07 831.052 1274.12 831.052Z" fill="#E6E6E6"/>
<path d="M1301.97 831.052H1291.5C1290.55 831.052 1289.77 831.836 1289.77 832.803V837.754C1289.77 838.721 1290.55 839.505 1291.5 839.505H1301.97C1302.92 839.505 1303.7 838.721 1303.7 837.754V832.803C1303.7 831.836 1302.92 831.052 1301.97 831.052Z" fill="#E6E6E6"/>
<path d="M1329.82 831.052H1319.35C1318.4 831.052 1317.62 831.836 1317.62 832.803V837.754C1317.62 838.721 1318.4 839.505 1319.35 839.505H1329.82C1330.77 839.505 1331.55 838.721 1331.55 837.754V832.803C1331.55 831.836 1330.77 831.052 1329.82 831.052Z" fill="#E6E6E6"/>
<path d="M1357.67 831.052H1347.2C1346.25 831.052 1345.47 831.836 1345.47 832.803V837.754C1345.47 838.721 1346.25 839.505 1347.2 839.505H1357.67C1358.62 839.505 1359.4 838.721 1359.4 837.754V832.803C1359.4 831.836 1358.62 831.052 1357.67 831.052Z" fill="#E6E6E6"/>
<path d="M1385.52 831.052H1375.05C1374.1 831.052 1373.32 831.836 1373.32 832.803V837.754C1373.32 838.721 1374.1 839.505 1375.05 839.505H1385.52C1386.47 839.505 1387.25 838.721 1387.25 837.754V832.803C1387.25 831.836 1386.47 831.052 1385.52 831.052Z" fill="#E6E6E6"/>
<path d="M1413.37 831.052H1402.9C1401.95 831.052 1401.17 831.836 1401.17 832.803V837.754C1401.17 838.721 1401.95 839.505 1402.9 839.505H1413.37C1414.32 839.505 1415.1 838.721 1415.1 837.754V832.803C1415.1 831.836 1414.32 831.052 1413.37 831.052Z" fill="#E6E6E6"/>
<path d="M1441.22 831.052H1430.75C1429.8 831.052 1429.02 831.836 1429.02 832.803V837.754C1429.02 838.721 1429.8 839.505 1430.75 839.505H1441.22C1442.17 839.505 1442.95 838.721 1442.95 837.754V832.803C1442.95 831.836 1442.17 831.052 1441.22 831.052Z" fill="#E6E6E6"/>
<path d="M1469.07 831.052H1458.6C1457.65 831.052 1456.87 831.836 1456.87 832.803V837.754C1456.87 838.721 1457.65 839.505 1458.6 839.505H1469.07C1470.02 839.505 1470.8 838.721 1470.8 837.754V832.803C1470.8 831.836 1470.02 831.052 1469.07 831.052Z" fill="#E6E6E6"/>
<path d="M1496.92 831.052H1486.45C1485.5 831.052 1484.72 831.836 1484.72 832.803V837.754C1484.72 838.721 1485.5 839.505 1486.45 839.505H1496.92C1497.87 839.505 1498.65 838.721 1498.65 837.754V832.803C1498.65 831.836 1497.87 831.052 1496.92 831.052Z" fill="#E6E6E6"/>
<path d="M1524.76 831.052H1514.3C1513.35 831.052 1512.57 831.836 1512.57 832.803V837.754C1512.57 838.721 1513.35 839.505 1514.3 839.505H1524.76C1525.72 839.505 1526.5 838.721 1526.5 837.754V832.803C1526.5 831.836 1525.72 831.052 1524.76 831.052Z" fill="#E6E6E6"/>
<path d="M1552.61 831.052H1542.15C1541.19 831.052 1540.42 831.836 1540.42 832.803V837.754C1540.42 838.721 1541.19 839.505 1542.15 839.505H1552.61C1553.57 839.505 1554.34 838.721 1554.34 837.754V832.803C1554.34 831.836 1553.57 831.052 1552.61 831.052Z" fill="#E6E6E6"/>
<path d="M1580.46 831.052H1570C1569.04 831.052 1568.27 831.836 1568.27 832.803V837.754C1568.27 838.721 1569.04 839.505 1570 839.505H1580.46C1581.42 839.505 1582.19 838.721 1582.19 837.754V832.803C1582.19 831.836 1581.42 831.052 1580.46 831.052Z" fill="#E6E6E6"/>
<path d="M1608.31 831.052H1597.85C1596.89 831.052 1596.12 831.836 1596.12 832.803V837.754C1596.12 838.721 1596.89 839.505 1597.85 839.505H1608.31C1609.27 839.505 1610.04 838.721 1610.04 837.754V832.803C1610.04 831.836 1609.27 831.052 1608.31 831.052Z" fill="#E6E6E6"/>
<path d="M1636.16 831.052H1625.7C1624.74 831.052 1623.97 831.836 1623.97 832.803V837.754C1623.97 838.721 1624.74 839.505 1625.7 839.505H1636.16C1637.12 839.505 1637.89 838.721 1637.89 837.754V832.803C1637.89 831.836 1637.12 831.052 1636.16 831.052Z" fill="#E6E6E6"/>
<path d="M1664.01 831.052H1653.55C1652.59 831.052 1651.82 831.836 1651.82 832.803V837.754C1651.82 838.721 1652.59 839.505 1653.55 839.505H1664.01C1664.97 839.505 1665.74 838.721 1665.74 837.754V832.803C1665.74 831.836 1664.97 831.052 1664.01 831.052Z" fill="#E6E6E6"/>
<path d="M1477.42 847.958H1369.48C1368.53 847.958 1367.75 848.742 1367.75 849.709V854.66C1367.75 855.627 1368.53 856.411 1369.48 856.411H1477.42C1478.38 856.411 1479.15 855.627 1479.15 854.66V849.709C1479.15 848.742 1478.38 847.958 1477.42 847.958Z" fill="#E6E6E6"/>
<path d="M1786.12 167.169H1075.05C1073.49 167.134 1072.25 165.825 1072.29 164.245C1072.32 162.714 1073.54 161.481 1075.05 161.447H1786.12C1787.68 161.482 1788.92 162.791 1788.89 164.371C1788.85 165.902 1787.63 167.135 1786.12 167.169Z" fill="#CACACA"/>
<path d="M1123.45 146.84C1132.61 146.84 1140.03 139.167 1140.03 129.701C1140.03 120.235 1132.61 112.561 1123.45 112.561C1114.3 112.561 1106.88 120.235 1106.88 129.701C1106.88 139.167 1114.3 146.84 1123.45 146.84Z" fill="#38BFA7"/>
<path d="M1180.7 146.84C1189.85 146.84 1197.27 139.167 1197.27 129.701C1197.27 120.235 1189.85 112.561 1180.7 112.561C1171.55 112.561 1164.13 120.235 1164.13 129.701C1164.13 139.167 1171.55 146.84 1180.7 146.84Z" fill="#E90566"/>
<path d="M1237.95 146.84C1247.1 146.84 1254.52 139.167 1254.52 129.701C1254.52 120.235 1247.1 112.561 1237.95 112.561C1228.8 112.561 1221.38 120.235 1221.38 129.701C1221.38 139.167 1228.8 146.84 1237.95 146.84Z" fill="#FFC876"/>
<path d="M1429.86 210.547L1427.56 203.758L1721.27 49.3643L1723.56 56.153L1429.86 210.547Z" fill="#3F3D56"/>
<path d="M2316.03 496.52L2313.73 489.731L2490.46 336.119L2492.75 342.904L2316.03 496.52Z" fill="#3F3D56"/>
<path d="M1976.48 532.278L1682.78 377.884L1685.07 371.095L1978.78 525.489L1976.48 532.278Z" fill="#3F3D56"/>
<path d="M2126.83 424.842L1954.65 138.855L1960.09 134.254L2132.27 420.241L2126.83 424.842Z" fill="#3F3D56"/>
<path d="M2261.2 52.194L2093.51 51.4122V44.2397L2261.2 45.0215V52.194Z" fill="#3F3D56"/>
<path d="M2564.97 96.6828H2377.1C2351.65 96.6828 2331.02 75.8099 2331.02 50.0618C2331.02 24.3138 2351.65 3.44092 2377.1 3.44092H2564.97C2590.42 3.44092 2611.05 24.3138 2611.05 50.0618C2611.05 75.8099 2590.42 96.6828 2564.97 96.6828Z" fill="#9F5F91"/>
<path d="M2798.92 369.236H2611.05C2585.6 369.236 2564.97 348.363 2564.97 322.615C2564.97 296.867 2585.6 275.994 2611.05 275.994H2798.92C2824.37 275.994 2845 296.867 2845 322.615C2845 348.363 2824.37 369.236 2798.92 369.236Z" fill="#FBC7D4"/>
<path d="M2495.15 561.434L2327.46 560.656V553.483L2495.15 554.262V561.434Z" fill="#3F3D56"/>
<path d="M2798.92 605.927H2611.05C2585.6 605.927 2564.97 585.054 2564.97 559.306C2564.97 533.558 2585.6 512.685 2611.05 512.685H2798.92C2824.37 512.685 2845 533.558 2845 559.306C2845 585.054 2824.37 605.927 2798.92 605.927Z" fill="#9796F0"/>
<path opacity="0.86" d="M2249.49 573.796H2061.63C2036.18 573.796 2015.54 552.923 2015.54 527.175C2015.54 501.427 2036.18 480.554 2061.63 480.554H2249.49C2274.94 480.554 2295.57 501.427 2295.57 527.175C2295.57 552.923 2274.94 573.796 2249.49 573.796Z" fill="#86FDE8"/>
<path d="M1994.28 93.2418H1806.41C1780.96 93.2418 1760.33 72.3689 1760.33 46.6209C1760.33 20.8729 1780.96 0 1806.41 0H1994.28C2019.73 0 2040.36 20.8729 2040.36 46.6209C2040.36 72.3689 2019.73 93.2418 1994.28 93.2418Z" fill="#1F8384"/>
<path d="M1096.31 893.616H883.628C867.967 893.616 855.271 906.461 855.271 922.306C855.271 938.151 867.967 950.996 883.628 950.996H961.611V1173.34H1018.33V950.996H1096.31C1111.97 950.996 1124.67 938.151 1124.67 922.306C1124.67 906.461 1111.97 893.616 1096.31 893.616Z" fill="#3F3D56"/>
<path d="M1236.68 1296.48H667.821C553.829 1296.06 457.386 1211.13 441.258 1096.96L421.121 1022.02C379.444 866.738 315.96 718.307 232.611 581.265C194.515 518.672 174.907 458.082 219.443 399.747C219.822 399.25 220.195 398.76 220.561 398.278C256.282 351.24 434.073 341.057 492.032 339.077C494.322 338.998 496.621 338.959 498.928 338.96H852.754C855.063 338.96 857.361 338.999 859.648 339.077C923.304 340.954 980.803 378.033 1009.36 435.621C1039.83 494.417 1035.95 565.391 999.238 620.419C874.949 809.308 836.896 927.748 875.855 1004.45C913.539 1078.64 1029.06 1116.57 1239.39 1123.82C1295.92 1125.76 1321.86 1170.3 1322.04 1210.84C1322.22 1250.34 1297.28 1293.96 1242.1 1296.37C1240.3 1296.44 1238.5 1296.48 1236.68 1296.48Z" fill="#3F3D56"/>
<path d="M764.458 1807.52H977.139C992.8 1807.52 1005.5 1794.67 1005.5 1778.83C1005.5 1762.98 992.8 1750.14 977.139 1750.14H899.156V1266H842.441V1750.14H764.458C748.797 1750.14 736.101 1762.98 736.101 1778.83C736.101 1794.67 748.797 1807.52 764.458 1807.52Z" fill="#3F3D56"/>
<path d="M956.954 1612.34L993.592 1632.47L1090.58 1496.8L1036.5 1467.08L956.954 1612.34Z" fill="#A0616A"/>
<path d="M974.59 1563.99L1041.1 1585.06L1030.52 1613.26L1076.12 1680.23C1081.96 1688.79 1079.83 1700.52 1071.36 1706.43C1066.32 1709.94 1059.9 1710.72 1054.18 1708.53L976.75 1678.76L973.876 1645.75L958.193 1671.63L928.999 1660.41L974.59 1563.99Z" fill="#2F2E41"/>
<path d="M1049.52 244.134C1052.81 266.897 1037.23 288.042 1014.73 291.362C1012.33 291.716 1009.9 291.855 1007.48 291.777L866.221 595.872L821.917 533.365L967.334 245.818C969.568 222.8 989.822 205.973 1012.57 208.233C1031.61 210.125 1046.89 224.967 1049.52 244.134Z" fill="#A0616A"/>
<path d="M580.742 657.357C580.742 657.357 576.956 710.482 636.341 720.901C695.725 731.321 854.477 629.757 880.549 614.163C906.621 598.568 955.206 402.358 955.206 402.358L912.953 330.053C860.784 396.818 819.817 458.383 817.329 502.084L580.742 657.357Z" fill="#ACB6E5"/>
<path d="M649.299 840.35L662.124 896.102C662.124 896.102 662.25 947.51 671.249 956.989C680.185 966.423 876.682 947.48 876.682 947.48C876.682 947.48 855.849 864.64 856.126 801.957L649.299 840.35Z" fill="#A0616A"/>
<path d="M1064.41 1553.48L993.512 1514.03C992.164 1420.7 1047.65 1294.4 1113.46 1162.11C966.277 1187.72 827.421 1195.92 707.316 1164.94C666.289 1153.98 641.562 1111.72 651.797 1070.06C652.264 1068.09 652.805 1066.15 653.418 1064.22C667.793 1019.85 635.562 992.04 665.206 943.238C743.177 916.298 817.245 908.69 884.977 932.48L927.415 1027.41L1137.77 999.873C1180.3 994.728 1218.9 1025.44 1223.99 1068.48C1224.01 1068.67 1224.03 1068.87 1224.06 1069.06C1224.34 1071.37 1224.52 1073.69 1224.61 1076.02C1182.08 1277.76 1134.38 1459.28 1064.41 1553.48Z" fill="#2F2E41"/>
<path d="M620.745 487.383L701.78 482.542C708.785 482.124 715.281 486.247 717.957 492.81L740.857 548.977L836.033 628.562C836.033 628.562 873.715 677.077 873.803 739.732C873.89 802.387 887.172 947.41 887.172 947.41C887.172 947.41 832.177 869.091 798.232 889.922C792.457 893.466 790.426 900.713 784.377 904.375C781.359 906.202 774.388 904.426 771.341 906.256C724.566 934.349 675.784 961.794 671.226 956.982C662.277 947.533 651.421 899.252 651.421 899.252L577.244 623.517C569.102 594.142 574.367 562.622 591.598 537.585C596.78 530.204 602.21 524.712 607.255 523.804C618.585 521.363 612.558 495.674 620.745 487.383Z" fill="#ACB6E5"/>
<path d="M1310.08 1729.13L1344.28 1705.07L1266.79 1557.16L1216.31 1592.67L1310.08 1729.13Z" fill="#A0616A"/>
<path d="M1315.25 1629.89L1261.64 1678.37C1176.4 1582.27 1111.96 1447.5 1057.35 1294.45C914.262 1252.06 806.357 1183.68 712.158 1102.5C680.202 1075.14 656.246 1039.99 683.5 1006.67C684.775 1005.11 686.105 1003.6 687.492 1002.15C719.671 968.689 801.278 975.065 849.074 944.412L955.845 1059.88L949.129 1090.83L1149.68 1159.56C1190.05 1173.87 1211.31 1218.59 1197.16 1259.44C1197.09 1259.64 1197.02 1259.84 1196.95 1260.04C1196.2 1262.24 1195.35 1264.4 1194.42 1266.53L1315.25 1629.89Z" fill="#2F2E41"/>
<path d="M1290.13 1719.38L1344.89 1675.75L1361.9 1700.52L1442.29 1700.27C1452.57 1700.24 1460.93 1708.64 1460.97 1719.05C1460.99 1725.24 1458 1731.04 1452.97 1734.57L1384.96 1782.41L1356.41 1766.16L1368.66 1793.87L1343.02 1811.9L1290.13 1719.38Z" fill="#2F2E41"/>
<path d="M740.407 1182.28C719.477 1173.29 709.711 1148.84 718.595 1127.67C719.542 1125.41 720.685 1123.24 722.009 1121.19L538.557 841.096L614.364 835.265L781.682 1110.35C799.962 1124.24 803.652 1150.49 789.924 1168.99C778.438 1184.46 757.966 1189.96 740.407 1182.28Z" fill="#A0616A"/>
<path d="M634.928 562.359C634.928 562.359 592.026 531.489 552.377 577.414C512.728 623.339 516.038 813.34 515.666 843.98C515.549 853.575 529.243 874.278 548.111 898.192C556.581 908.927 566.094 920.31 575.868 931.626C581.524 938.174 576.65 951.804 582.33 958.168C587.978 964.498 604.18 963.564 609.552 969.439C635.053 997.323 655.77 1018.55 655.77 1018.55L738.787 1019.58C739.724 957.145 697.462 901.413 643.167 847.549L634.928 562.359Z" fill="#ACB6E5"/>
<path d="M551.248 290.512C543.388 296.251 535.12 302.164 525.529 303.586C515.939 305.009 504.711 300.318 502.057 290.886C498.811 279.354 509.104 268.853 518.356 261.359L547.691 237.593C553.063 232.772 559.128 228.805 565.677 225.827C572.341 222.861 579.976 223.119 586.429 226.529C592.84 230.909 596.547 238.339 596.223 246.159C595.805 253.866 593.291 261.307 588.958 267.661C577.954 285.013 560.425 297.069 540.427 301.037" fill="#2F2E41"/>
<path d="M773.742 907.961H561.062C545.4 907.961 532.704 920.806 532.704 936.651C532.704 952.496 545.4 965.34 561.062 965.34H639.045V1187.69H695.759V965.34H773.742C789.404 965.34 802.1 952.496 802.1 936.651C802.1 920.806 789.404 907.961 773.742 907.961Z" fill="#3F3D56"/>
<path d="M564.279 230.32C565.135 208.809 542.478 191.777 521.247 193.123C500.016 194.469 481.766 209.578 469.726 227.328C457.69 245.062 450.459 265.603 440.977 284.859C431.494 304.114 418.867 322.967 400.024 332.946C381.185 342.909 354.961 341.131 341.94 324.12C333.728 336.719 331.942 352.522 337.131 366.671C342.462 380.638 352.403 392.308 365.27 399.704C370.391 402.777 375.861 405.21 381.561 406.952C383.911 400.534 387.218 394.517 391.366 389.111C389.493 395.511 388.777 402.201 389.255 408.859C398.04 410.563 407.078 410.419 415.806 408.436C433.183 404.503 447.713 392.515 455.016 376.083C462.979 357.013 458.923 335.269 460.626 314.64C462.315 294.007 474.604 270.453 495.066 270.117C510.65 269.857 508.587 271.157 518.461 283.356" fill="#2F2E41"/>
<path d="M705.786 343.352C705.786 394.848 664.524 436.594 613.624 436.594C562.725 436.594 514.373 376.917 514.373 325.421C514.373 273.925 562.725 250.11 613.624 250.11C664.524 250.11 705.786 291.856 705.786 343.352Z" fill="#2F2E41"/>
<path d="M659.04 455.091C706.615 445.243 737.29 398.24 727.555 350.108C717.82 301.976 671.362 270.941 623.788 280.79C576.213 290.639 545.538 337.641 555.273 385.773C565.007 433.905 611.466 464.94 659.04 455.091Z" fill="#A0616A"/>
<path d="M751.867 354.111C725.838 361.301 699.558 368.838 689.41 354.111C687.437 344.346 683.7 335.033 678.386 326.64C677.386 336.039 675.206 345.27 671.899 354.111C639.015 361.342 608.281 363.071 581.722 354.111C578.071 360.793 575.951 368.22 575.519 375.843C574.206 375.009 572.831 374.277 571.407 373.656C569.699 372.679 567.658 372.496 565.807 373.154C564.526 373.936 563.676 375.273 563.503 376.776C563.326 378.272 563.398 379.787 563.715 381.259C564.087 386.388 565.602 391.366 568.146 395.819C570.181 398.92 573.409 401.015 577.043 401.592C580.73 422.572 610.08 450.939 610.08 450.939C521.463 454.525 521.463 393.703 521.463 336.18L532.097 314.662H567.544V268.042H666.795C713.774 268.054 751.855 306.581 751.867 354.111Z" fill="#2F2E41"/>
<path d="M1559.47 1817.9L4.24262 1819C1.91167 1819.01 0.0122169 1817.11 5.86489e-05 1814.75C-0.0120996 1812.39 1.86764 1810.47 4.19859 1810.46H4.24262L1559.47 1809.36C1561.8 1809.37 1563.69 1811.28 1563.68 1813.64C1563.67 1815.99 1561.79 1817.89 1559.47 1817.9Z" fill="#CACACA"/>
<path d="M2598.06 1817.9L1794.31 1819C1791.98 1819.01 1790.08 1817.11 1790.06 1814.75C1790.05 1812.39 1791.93 1810.47 1794.26 1810.46H1794.31L2598.06 1809.36C2600.39 1809.35 2602.29 1811.26 2602.3 1813.61C2602.3 1815.97 2600.42 1817.89 2598.09 1817.9H2598.06Z" fill="#CACACA"/>
<path d="M1595.01 530.761H1290.34C1263.88 530.731 1242.43 509.035 1242.4 482.263V278.016C1242.43 251.244 1263.88 229.548 1290.34 229.518H1595.01C1621.48 229.548 1642.92 251.244 1642.95 278.016V482.263C1642.92 509.035 1621.48 530.731 1595.01 530.761ZM1290.34 236.691C1267.79 236.717 1249.52 255.204 1249.49 278.016V482.263C1249.52 505.076 1267.79 523.563 1290.34 523.589H1595.01C1617.56 523.563 1635.84 505.076 1635.86 482.263V278.016C1635.84 255.204 1617.56 236.717 1595.01 236.691L1290.34 236.691Z" fill="#1B2C7A"/>
<path d="M1380.61 294.07H1299.12V301.243H1380.61V294.07Z" fill="#E6E6E6"/>
<path d="M1479.9 322.76H1299.12V329.933H1479.9V322.76Z" fill="#E6E6E6"/>
<path d="M1479.9 347.864H1299.12V355.036H1479.9V347.864Z" fill="#E6E6E6"/>
<path d="M1529.52 372.967H1299.12V380.14H1529.52V372.967Z" fill="#E6E6E6"/>
<path d="M1419.64 398.071H1299.12V405.243H1419.64V398.071Z" fill="#E6E6E6"/>
<path d="M1518.89 423.174H1299.12V430.347H1518.89V423.174Z" fill="#E6E6E6"/>
<path d="M1338.11 448.278H1299.12V455.451H1338.11V448.278Z" fill="#E6E6E6"/>
<path d="M1296.46 139.713C1296.12 139.713 1295.78 139.579 1295.52 139.31L1287.95 131.488C1287.45 130.967 1287.45 130.134 1287.95 129.613L1295.52 121.791C1296.03 121.262 1296.87 121.254 1297.39 121.77C1297.91 122.288 1297.92 123.137 1297.41 123.666L1290.75 130.55L1297.41 137.435C1297.92 137.964 1297.91 138.813 1297.39 139.331C1297.13 139.586 1296.8 139.713 1296.46 139.713Z" fill="#CCCCCC"/>
<path d="M1309.17 139.713C1308.84 139.713 1308.5 139.586 1308.25 139.331C1307.72 138.813 1307.71 137.964 1308.22 137.435L1314.88 130.55L1308.22 123.666C1307.71 123.137 1307.72 122.288 1308.25 121.77C1308.77 121.251 1309.61 121.261 1310.12 121.791L1317.68 129.612C1318.19 130.134 1318.19 130.966 1317.68 131.488L1310.12 139.31C1309.86 139.578 1309.52 139.713 1309.17 139.713Z" fill="#CCCCCC"/>
<path d="M1704.84 120.3H1690.78C1689.17 120.3 1687.88 121.614 1687.88 123.236V137.478C1687.88 139.101 1689.17 140.415 1690.78 140.415H1704.84C1706.44 140.415 1707.76 139.101 1707.76 137.478V123.236C1707.76 121.614 1706.44 120.3 1704.84 120.3Z" fill="#CCCCCC"/>
<path d="M1670.38 120.3H1656.31C1654.71 120.3 1653.41 121.614 1653.41 123.236V137.478C1653.41 139.101 1654.71 140.415 1656.31 140.415H1670.38C1671.98 140.415 1673.29 139.101 1673.29 137.478V123.236C1673.29 121.614 1671.98 120.3 1670.38 120.3Z" fill="#CCCCCC"/>
<path d="M1737.32 120.97H1723.25C1721.65 120.97 1720.35 122.284 1720.35 123.907V138.148C1720.35 139.771 1721.65 141.085 1723.25 141.085H1737.32C1738.92 141.085 1740.23 139.771 1740.23 138.148V123.907C1740.23 122.284 1738.92 120.97 1737.32 120.97Z" fill="#CCCCCC"/>
<path d="M1525.34 126.388H1412.93C1410.97 126.388 1409.39 127.997 1409.39 129.968C1409.39 131.94 1410.97 133.549 1412.93 133.549H1525.34C1527.29 133.549 1528.88 131.939 1528.88 129.968C1528.88 127.997 1527.29 126.388 1525.34 126.388Z" fill="#CCCCCC"/>
</g>
<defs>
<clipPath id="clip0_305_394">
<rect width="2845" height="1819" fill="white"/>
</clipPath>
</defs>
</svg>
